<svg width="360" height="300" viewBox="0 0 360 300" fill="none" xmlns="http://www.w3.org/2000/svg">
  <defs>
    <linearGradient id="gold" x1="77" y1="10" x2="283" y2="290" gradientUnits="userSpaceOnUse">
      <stop stop-color="#FFF0A6"/>
      <stop offset="0.42" stop-color="#D2A23A"/>
      <stop offset="1" stop-color="#8C6015"/>
    </linearGradient>
    <filter id="glow" x="-20%" y="-20%" width="140%" height="140%" color-interpolation-filters="sRGB">
      <feGaussianBlur stdDeviation="4" result="blur"/>
      <feColorMatrix in="blur" type="matrix" values="1 0 0 0 0.92 0 1 0 0 0.64 0 0 1 0 0.12 0 0 0 0.65 0"/>
      <feBlend in2="SourceGraphic" mode="screen"/>
    </filter>
  </defs>
  <g filter="url(#glow)" stroke="url(#gold)" stroke-width="7" stroke-linecap="round">
    <path d="M142 282C78 253 39 196 42 127C44 80 64 40 98 16"/>
    <path d="M218 282C282 253 321 196 318 127C316 80 296 40 262 16"/>
  </g>
  <g fill="url(#gold)">
    <path d="M91 48C69 51 58 64 54 85C76 82 88 70 91 48Z"/>
    <path d="M71 89C49 94 40 109 40 131C62 126 73 112 71 89Z"/>
    <path d="M66 132C46 142 41 159 47 180C68 170 76 154 66 132Z"/>
    <path d="M80 178C63 193 63 211 75 229C93 214 97 196 80 178Z"/>
    <path d="M109 222C99 242 106 258 124 272C136 251 133 234 109 222Z"/>
    <path d="M116 27C96 22 81 29 69 47C90 53 105 47 116 27Z"/>
    <path d="M269 48C291 51 302 64 306 85C284 82 272 70 269 48Z"/>
    <path d="M289 89C311 94 320 109 320 131C298 126 287 112 289 89Z"/>
    <path d="M294 132C314 142 319 159 313 180C292 170 284 154 294 132Z"/>
    <path d="M280 178C297 193 297 211 285 229C267 214 263 196 280 178Z"/>
    <path d="M251 222C261 242 254 258 236 272C224 251 227 234 251 222Z"/>
    <path d="M244 27C264 22 279 29 291 47C270 53 255 47 244 27Z"/>
  </g>
</svg>
